# xmcd
#
# Track frame offsets:
#	150
#	10339
#	20755
#	33789
#	45551
#	58479
#	71030
#	84958
#	98152
#	107682
#	119441
#	131956
#	149674
#	159998
#	173953
#
# Disc length: 2492 seconds
#
# Revision: 1
# Processed by: cddbd v1.5.2PL0 Copyright (c) Steve Scherf et al.
# Submitted via: audiograbber 1.83.01
#
DISCID=d409ba0f
DTITLE=Patsy Cline - Patsy Cline Compilation
DYEAR=1900
DGENRE=Country
TTITLE0=Back In My Baby's Arms
TTITLE1=Blue Moon of Kentucky
TTITLE2=Crazy
TTITLE3=Half As Much
TTITLE4=I Fall to Pieces
TTITLE5=San Antonio Rose
TTITLE6=She's Got You
TTITLE7=Sweet Dreams
TTITLE8=Walkin' After Midnight
TTITLE9=Leavin' On Your Mind
TTITLE10=Crazy Arms
TTITLE11=Faded Love
TTITLE12=Foolin' Around
TTITLE13=Imagine That
TTITLE14=When I Get Through With You
EXTD=Chartbuster Karaoke Country Artist Series
EXTT0=
EXTT1=
EXTT2=
EXTT3=
EXTT4=
EXTT5=
EXTT6=
EXTT7=
EXTT8=
EXTT9=
EXTT10=
EXTT11=
EXTT12=
EXTT13=
EXTT14=
PLAYORDER=
